ffmpeg started on 2025-06-07 at 15:26:06
Report written to "D:\Convert\FFMetrics\reports\psnr_report-6.txt"
Log level: 32
Command line:
ffmpeg -hide_banner -nostdin -i "G:\\\xc0\xed\xe8\xec\xe5\\\xce\xed\xe3\xee\xe8\xed\xe3\xe8\\!_36_\xce\xf1\xe5\xed\xfc_2024\\DreamCast\\\xd1\xee\xe1\xeb\xe0\xe7\xed 2,5-\xec\xe5\xf0\xed\xee\xe3\xee \xe8\xe7\xec\xe5\xf0\xe5\xed\xe8\xff\\[DC] 2-5 Jigen no Ririsa - 14_Telegram_HEVC.mkv" -i "G:\\\xc0\xed\xe8\xec\xe5\\\xce\xed\xe3\xee\xe8\xed\xe3\xe8\\!_36_\xce\xf1\xe5\xed\xfc_2024\\DreamCast\\\xd1\xee\xe1\xeb\xe0\xe7\xed 2,5-\xec\xe5\xf0\xed\xee\xe3\xee \xe8\xe7\xec\xe5\xf0\xe5\xed\xe8\xff\\[DC] 2-5 Jigen no Ririsa - 14_Telegram.mp4" -lavfi "[0:v]settb=AVTB,setpts=PTS-STARTPTS,format=pix_fmts=yuv420p10,fps=24000/1001,scale=1920:1080:flags=bicubic[main];[1:v]settb=AVTB,setpts=PTS-STARTPTS,format=pix_fmts=yuv420p,fps=24000/1001,scale=1920:1080:flags=bicubic[ref];[main][ref]psnr=eof_action=endall:stats_file='D\\:/Convert/FFMetrics/logs/psnr_logfile-6.txt'" -f null -
Input #0, matroska,webm, from 'G:\Аниме\Онгоинги\!_36_Осень_2024\DreamCast\Соблазн 2,5-мерного измерения\[DC] 2-5 Jigen no Ririsa - 14_Telegram_HEVC.mkv':
  Metadata:
    COMPATIBLE_BRANDS: isomiso2avc1mp41
    MAJOR_BRAND     : isom
    MINOR_VERSION   : 512
    ENCODER         : Lavf61.7.100
  Duration: 00:24:08.75, start: -0.021000, bitrate: 1162 kb/s
  Stream #0:0: Video: hevc (Main 10), yuv420p10le(tv, bt709, progressive), 1920x1080 [SAR 1:1 DAR 16:9], 23.98 fps, 23.98 tbr, 1k tbn (default)
      Metadata:
        HANDLER_NAME    : VideoHandler
        VENDOR_ID       : [0][0][0][0]
        ENCODER         : Lavc61.19.100 libx265
        BPS             : 965364
        DURATION        : 00:24:08.613708333
        NUMBER_OF_FRAMES: 34732
        NUMBER_OF_BYTES : 174805002
        _STATISTICS_WRITING_APP: mkvpropedit v66.0.0 ('Josie') 64-bit
        _STATISTICS_WRITING_DATE_UTC: 2025-06-04 12:04:33
        _STATISTICS_TAGS: BPS DURATION NUMBER_OF_FRAMES NUMBER_OF_BYTES
  Stream #0:1: Audio: aac (LC), 48000 Hz, stereo, fltp (default)
      Metadata:
        HANDLER_NAME    : SoundHandler
        VENDOR_ID       : [0][0][0][0]
        ENCODER         : Lavc61.19.100 aac
        BPS             : 193522
        DURATION        : 00:24:08.746000000
        NUMBER_OF_FRAMES: 67911
        NUMBER_OF_BYTES : 35045667
        _STATISTICS_WRITING_APP: mkvpropedit v66.0.0 ('Josie') 64-bit
        _STATISTICS_WRITING_DATE_UTC: 2025-06-04 12:04:33
        _STATISTICS_TAGS: BPS DURATION NUMBER_OF_FRAMES NUMBER_OF_BYTES
Input #1, mov,mp4,m4a,3gp,3g2,mj2, from 'G:\Аниме\Онгоинги\!_36_Осень_2024\DreamCast\Соблазн 2,5-мерного измерения\[DC] 2-5 Jigen no Ririsa - 14_Telegram.mp4':
  Metadata:
    major_brand     : isom
    minor_version   : 512
    compatible_brands: isomiso2avc1mp41
    encoder         : Lavf61.1.100
  Duration: 00:24:08.69, start: 0.000000, bitrate: 3912 kb/s
  Stream #1:0[0x1](und): Video: h264 (High) (avc1 / 0x31637661), yuv420p(tv, bt709, progressive), 1920x1080 [SAR 1:1 DAR 16:9], 3764 kb/s, 23.98 fps, 23.98 tbr, 24k tbn (default)
      Metadata:
        handler_name    : VideoHandler
        vendor_id       : [0][0][0][0]
        encoder         : Lavc61.3.100 h264_qsv
  Stream #1:1[0x2](und): Audio: aac (HE-AACv2) (mp4a / 0x6134706D), 48000 Hz, stereo, fltp, 144 kb/s (default)
      Metadata:
        handler_name    : SoundHandler
        vendor_id       : [0][0][0][0]
Stream mapping:
  Stream #0:0 (hevc) -> settb:default
  Stream #1:0 (h264) -> settb:default
  psnr:default -> Stream #0:0 (wrapped_avframe)
  Stream #0:1 -> #0:1 (aac (native) -> pcm_s16le (native))
Output #0, null, to 'pipe:':
  Metadata:
    COMPATIBLE_BRANDS: isomiso2avc1mp41
    MAJOR_BRAND     : isom
    MINOR_VERSION   : 512
    encoder         : Lavf61.7.100
  Stream #0:0: Video: wrapped_avframe, yuv420p10le(tv, bt709, progressive), 1920x1080 [SAR 1:1 DAR 16:9], q=2-31, 200 kb/s, 23.98 fps, 23.98 tbn
      Metadata:
        encoder         : Lavc61.19.100 wrapped_avframe
  Stream #0:1: Audio: pcm_s16le, 48000 Hz, stereo, s16, 1536 kb/s (default)
      Metadata:
        HANDLER_NAME    : SoundHandler
        VENDOR_ID       : [0][0][0][0]
        _STATISTICS_TAGS: BPS DURATION NUMBER_OF_FRAMES NUMBER_OF_BYTES
        BPS             : 193522
        DURATION        : 00:24:08.746000000
        NUMBER_OF_FRAMES: 67911
        NUMBER_OF_BYTES : 35045667
        _STATISTICS_WRITING_APP: mkvpropedit v66.0.0 ('Josie') 64-bit
        _STATISTICS_WRITING_DATE_UTC: 2025-06-04 12:04:33
        encoder         : Lavc61.19.100 pcm_s16le
frame=  178 fps=0.0 q=-0.0 size=N/A time=00:00:07.42 bitrate=N/A speed=14.5x    frame=  435 fps=420 q=-0.0 size=N/A time=00:00:18.14 bitrate=N/A speed=17.5x    frame=  662 fps=429 q=-0.0 size=N/A time=00:00:27.61 bitrate=N/A speed=17.9x    frame=  889 fps=429 q=-0.0 size=N/A time=00:00:37.07 bitrate=N/A speed=17.9x    frame= 1120 fps=434 q=-0.0 size=N/A time=00:00:46.71 bitrate=N/A speed=18.1x    frame= 1366 fps=442 q=-0.0 size=N/A time=00:00:56.97 bitrate=N/A speed=18.4x    frame= 1615 fps=447 q=-0.0 size=N/A time=00:01:07.35 bitrate=N/A speed=18.6x    frame= 1833 fps=444 q=-0.0 size=N/A time=00:01:16.45 bitrate=N/A speed=18.5x    frame= 1986 fps=428 q=-0.0 size=N/A time=00:01:22.83 bitrate=N/A speed=17.8x    frame= 2171 fps=421 q=-0.0 size=N/A time=00:01:30.54 bitrate=N/A speed=17.6x    frame= 2399 fps=423 q=-0.0 size=N/A time=00:01:40.05 bitrate=N/A speed=17.6x    frame= 2611 fps=422 q=-0.0 size=N/A time=00:01:48.90 bitrate=N/A speed=17.6x    frame= 2814 fps=420 q=-0.0 size=N/A time=00:01:57.36 bitrate=N/A speed=17.5x    frame= 3074 fps=426 q=-0.0 size=N/A time=00:02:08.21 bitrate=N/A speed=17.7x    frame= 3320 fps=429 q=-0.0 size=N/A time=00:02:18.47 bitrate=N/A speed=17.9x    frame= 3533 fps=428 q=-0.0 size=N/A time=00:02:27.35 bitrate=N/A speed=17.8x    frame= 3674 fps=419 q=-0.0 size=N/A time=00:02:33.23 bitrate=N/A speed=17.5x    frame= 3937 fps=424 q=-0.0 size=N/A time=00:02:44.20 bitrate=N/A speed=17.7x    frame= 4205 fps=429 q=-0.0 size=N/A time=00:02:55.38 bitrate=N/A speed=17.9x    frame= 4461 fps=432 q=-0.0 size=N/A time=00:03:06.06 bitrate=N/A speed=  18x    frame= 4717 fps=436 q=-0.0 size=N/A time=00:03:16.73 bitrate=N/A speed=18.2x    frame= 4979 fps=439 q=-0.0 size=N/A time=00:03:27.66 bitrate=N/A speed=18.3x    frame= 5243 fps=442 q=-0.0 size=N/A time=00:03:38.67 bitrate=N/A speed=18.4x    frame= 5489 fps=444 q=-0.0 size=N/A time=00:03:48.93 bitrate=N/A speed=18.5x    frame= 5732 fps=444 q=-0.0 size=N/A time=00:03:59.07 bitrate=N/A speed=18.5x    frame= 5977 fps=446 q=-0.0 size=N/A time=00:04:09.29 bitrate=N/A speed=18.6x    frame= 6239 fps=448 q=-0.0 size=N/A time=00:04:20.21 bitrate=N/A speed=18.7x    frame= 6513 fps=451 q=-0.0 size=N/A time=00:04:31.64 bitrate=N/A speed=18.8x    frame= 6784 fps=454 q=-0.0 size=N/A time=00:04:42.94 bitrate=N/A speed=18.9x    frame= 7044 fps=455 q=-0.0 size=N/A time=00:04:53.79 bitrate=N/A speed=  19x    frame= 7288 fps=456 q=-0.0 size=N/A time=00:05:03.97 bitrate=N/A speed=  19x    frame= 7528 fps=456 q=-0.0 size=N/A time=00:05:13.98 bitrate=N/A speed=  19x    frame= 7789 fps=458 q=-0.0 size=N/A time=00:05:24.86 bitrate=N/A speed=19.1x    frame= 8055 fps=460 q=-0.0 size=N/A time=00:05:35.96 bitrate=N/A speed=19.2x    frame= 8311 fps=460 q=-0.0 size=N/A time=00:05:46.63 bitrate=N/A speed=19.2x    frame= 8574 fps=462 q=-0.0 size=N/A time=00:05:57.60 bitrate=N/A speed=19.3x    frame= 8851 fps=464 q=-0.0 size=N/A time=00:06:09.16 bitrate=N/A speed=19.3x    frame= 9102 fps=464 q=-0.0 size=N/A time=00:06:19.62 bitrate=N/A speed=19.4x    frame= 9327 fps=464 q=-0.0 size=N/A time=00:06:29.01 bitrate=N/A speed=19.3x    frame= 9575 fps=464 q=-0.0 size=N/A time=00:06:39.35 bitrate=N/A speed=19.4x    frame= 9824 fps=465 q=-0.0 size=N/A time=00:06:49.74 bitrate=N/A speed=19.4x    frame=10079 fps=466 q=-0.0 size=N/A time=00:07:00.37 bitrate=N/A speed=19.4x    frame=10295 fps=464 q=-0.0 size=N/A time=00:07:09.38 bitrate=N/A speed=19.4x    frame=10557 fps=465 q=-0.0 size=N/A time=00:07:20.31 bitrate=N/A speed=19.4x    frame=10821 fps=466 q=-0.0 size=N/A time=00:07:31.32 bitrate=N/A speed=19.4x    frame=11085 fps=467 q=-0.0 size=N/A time=00:07:42.33 bitrate=N/A speed=19.5x    frame=11338 fps=468 q=-0.0 size=N/A time=00:07:52.88 bitrate=N/A speed=19.5x    frame=11613 fps=469 q=-0.0 size=N/A time=00:08:04.35 bitrate=N/A speed=19.6x    frame=11885 fps=470 q=-0.0 size=N/A time=00:08:15.70 bitrate=N/A speed=19.6x    frame=12140 fps=471 q=-0.0 size=N/A time=00:08:26.33 bitrate=N/A speed=19.6x    frame=12398 fps=471 q=-0.0 size=N/A time=00:08:37.09 bitrate=N/A speed=19.7x    frame=12661 fps=472 q=-0.0 size=N/A time=00:08:48.06 bitrate=N/A speed=19.7x    frame=12886 fps=471 q=-0.0 size=N/A time=00:08:57.45 bitrate=N/A speed=19.6x    frame=13128 fps=471 q=-0.0 size=N/A time=00:09:07.54 bitrate=N/A speed=19.7x    frame=13374 fps=471 q=-0.0 size=N/A time=00:09:17.80 bitrate=N/A speed=19.7x    frame=13620 fps=472 q=-0.0 size=N/A time=00:09:28.06 bitrate=N/A speed=19.7x    frame=13876 fps=472 q=-0.0 size=N/A time=00:09:38.74 bitrate=N/A speed=19.7x    frame=14121 fps=472 q=-0.0 size=N/A time=00:09:48.96 bitrate=N/A speed=19.7x    frame=14309 fps=470 q=-0.0 size=N/A time=00:09:56.80 bitrate=N/A speed=19.6x    frame=14532 fps=470 q=-0.0 size=N/A time=00:10:06.10 bitrate=N/A speed=19.6x    frame=14787 fps=470 q=-0.0 size=N/A time=00:10:16.74 bitrate=N/A speed=19.6x    frame=15038 fps=470 q=-0.0 size=N/A time=00:10:27.20 bitrate=N/A speed=19.6x    frame=15315 fps=471 q=-0.0 size=N/A time=00:10:38.76 bitrate=N/A speed=19.7x    frame=15581 fps=472 q=-0.0 size=N/A time=00:10:49.85 bitrate=N/A speed=19.7x    frame=15856 fps=473 q=-0.0 size=N/A time=00:11:01.32 bitrate=N/A speed=19.7x    frame=16101 fps=473 q=-0.0 size=N/A time=00:11:11.54 bitrate=N/A speed=19.7x    frame=16348 fps=473 q=-0.0 size=N/A time=00:11:21.84 bitrate=N/A speed=19.7x    frame=16599 fps=473 q=-0.0 size=N/A time=00:11:32.31 bitrate=N/A speed=19.7x    frame=16822 fps=473 q=-0.0 size=N/A time=00:11:41.61 bitrate=N/A speed=19.7x    frame=17068 fps=473 q=-0.0 size=N/A time=00:11:51.87 bitrate=N/A speed=19.7x    frame=17310 fps=473 q=-0.0 size=N/A time=00:12:01.97 bitrate=N/A speed=19.7x    frame=17567 fps=473 q=-0.0 size=N/A time=00:12:12.69 bitrate=N/A speed=19.7x    frame=17805 fps=473 q=-0.0 size=N/A time=00:12:22.61 bitrate=N/A speed=19.7x    frame=18067 fps=473 q=-0.0 size=N/A time=00:12:33.54 bitrate=N/A speed=19.7x    frame=18315 fps=473 q=-0.0 size=N/A time=00:12:43.88 bitrate=N/A speed=19.7x    frame=18522 fps=472 q=-0.0 size=N/A time=00:12:52.52 bitrate=N/A speed=19.7x    frame=18770 fps=473 q=-0.0 size=N/A time=00:13:02.86 bitrate=N/A speed=19.7x    frame=19028 fps=473 q=-0.0 size=N/A time=00:13:13.62 bitrate=N/A speed=19.7x    frame=19265 fps=473 q=-0.0 size=N/A time=00:13:23.51 bitrate=N/A speed=19.7x    frame=19492 fps=472 q=-0.0 size=N/A time=00:13:32.97 bitrate=N/A speed=19.7x    frame=19739 fps=472 q=-0.0 size=N/A time=00:13:43.28 bitrate=N/A speed=19.7x    frame=19983 fps=472 q=-0.0 size=N/A time=00:13:53.45 bitrate=N/A speed=19.7x    frame=20235 fps=473 q=-0.0 size=N/A time=00:14:03.96 bitrate=N/A speed=19.7x    frame=20493 fps=473 q=-0.0 size=N/A time=00:14:14.72 bitrate=N/A speed=19.7x    frame=20734 fps=473 q=-0.0 size=N/A time=00:14:24.78 bitrate=N/A speed=19.7x    frame=20984 fps=473 q=-0.0 size=N/A time=00:14:35.20 bitrate=N/A speed=19.7x    frame=21249 fps=473 q=-0.0 size=N/A time=00:14:46.26 bitrate=N/A speed=19.7x    frame=21450 fps=473 q=-0.0 size=N/A time=00:14:54.64 bitrate=N/A speed=19.7x    frame=21682 fps=472 q=-0.0 size=N/A time=00:15:04.32 bitrate=N/A speed=19.7x    frame=21926 fps=472 q=-0.0 size=N/A time=00:15:14.49 bitrate=N/A speed=19.7x    frame=22117 fps=471 q=-0.0 size=N/A time=00:15:22.46 bitrate=N/A speed=19.7x    frame=22361 fps=471 q=-0.0 size=N/A time=00:15:32.64 bitrate=N/A speed=19.7x    frame=22600 fps=471 q=-0.0 size=N/A time=00:15:42.60 bitrate=N/A speed=19.6x    frame=22815 fps=471 q=-0.0 size=N/A time=00:15:51.57 bitrate=N/A speed=19.6x    frame=23039 fps=470 q=-0.0 size=N/A time=00:16:00.91 bitrate=N/A speed=19.6x    frame=23308 fps=471 q=-0.0 size=N/A time=00:16:12.13 bitrate=N/A speed=19.6x    frame=23530 fps=470 q=-0.0 size=N/A time=00:16:21.39 bitrate=N/A speed=19.6x    frame=23730 fps=469 q=-0.0 size=N/A time=00:16:29.73 bitrate=N/A speed=19.6x    frame=23924 fps=469 q=-0.0 size=N/A time=00:16:37.83 bitrate=N/A speed=19.5x    frame=24127 fps=468 q=-0.0 size=N/A time=00:16:46.29 bitrate=N/A speed=19.5x    frame=24377 fps=468 q=-0.0 size=N/A time=00:16:56.72 bitrate=N/A speed=19.5x    frame=24612 fps=468 q=-0.0 size=N/A time=00:17:06.52 bitrate=N/A speed=19.5x    frame=24864 fps=468 q=-0.0 size=N/A time=00:17:17.03 bitrate=N/A speed=19.5x    frame=25130 fps=469 q=-0.0 size=N/A time=00:17:28.13 bitrate=N/A speed=19.5x    frame=25388 fps=469 q=-0.0 size=N/A time=00:17:38.89 bitrate=N/A speed=19.6x    frame=25659 fps=469 q=-0.0 size=N/A time=00:17:50.19 bitrate=N/A speed=19.6x    frame=25903 fps=469 q=-0.0 size=N/A time=00:18:00.37 bitrate=N/A speed=19.6x    frame=26169 fps=470 q=-0.0 size=N/A time=00:18:11.46 bitrate=N/A speed=19.6x    frame=26413 fps=470 q=-0.0 size=N/A time=00:18:21.64 bitrate=N/A speed=19.6x    frame=26705 fps=471 q=-0.0 size=N/A time=00:18:33.82 bitrate=N/A speed=19.6x    frame=26991 fps=471 q=-0.0 size=N/A time=00:18:45.74 bitrate=N/A speed=19.7x    frame=27253 fps=472 q=-0.0 size=N/A time=00:18:56.67 bitrate=N/A speed=19.7x    frame=27525 fps=472 q=-0.0 size=N/A time=00:19:08.02 bitrate=N/A speed=19.7x    frame=27803 fps=473 q=-0.0 size=N/A time=00:19:19.61 bitrate=N/A speed=19.7x    frame=28085 fps=474 q=-0.0 size=N/A time=00:19:31.37 bitrate=N/A speed=19.8x    frame=28358 fps=474 q=-0.0 size=N/A time=00:19:42.76 bitrate=N/A speed=19.8x    frame=28626 fps=474 q=-0.0 size=N/A time=00:19:53.94 bitrate=N/A speed=19.8x    frame=28894 fps=475 q=-0.0 size=N/A time=00:20:05.12 bitrate=N/A speed=19.8x    frame=29161 fps=475 q=-0.0 size=N/A time=00:20:16.25 bitrate=N/A speed=19.8x    frame=29399 fps=475 q=-0.0 size=N/A time=00:20:26.18 bitrate=N/A speed=19.8x    frame=29646 fps=475 q=-0.0 size=N/A time=00:20:36.48 bitrate=N/A speed=19.8x    frame=29871 fps=475 q=-0.0 size=N/A time=00:20:45.86 bitrate=N/A speed=19.8x    frame=30082 fps=474 q=-0.0 size=N/A time=00:20:54.67 bitrate=N/A speed=19.8x    frame=30346 fps=474 q=-0.0 size=N/A time=00:21:05.68 bitrate=N/A speed=19.8x    frame=30609 fps=475 q=-0.0 size=N/A time=00:21:16.65 bitrate=N/A speed=19.8x    frame=30871 fps=475 q=-0.0 size=N/A time=00:21:27.57 bitrate=N/A speed=19.8x    frame=31138 fps=475 q=-0.0 size=N/A time=00:21:38.71 bitrate=N/A speed=19.8x    frame=31405 fps=476 q=-0.0 size=N/A time=00:21:49.85 bitrate=N/A speed=19.8x    frame=31685 fps=476 q=-0.0 size=N/A time=00:22:01.52 bitrate=N/A speed=19.9x    frame=31956 fps=477 q=-0.0 size=N/A time=00:22:12.83 bitrate=N/A speed=19.9x    frame=32213 fps=477 q=-0.0 size=N/A time=00:22:23.55 bitrate=N/A speed=19.9x    frame=32477 fps=477 q=-0.0 size=N/A time=00:22:34.56 bitrate=N/A speed=19.9x    frame=32706 fps=477 q=-0.0 size=N/A time=00:22:44.11 bitrate=N/A speed=19.9x    frame=32931 fps=476 q=-0.0 size=N/A time=00:22:53.49 bitrate=N/A speed=19.9x    frame=33130 fps=476 q=-0.0 size=N/A time=00:23:01.79 bitrate=N/A speed=19.8x    frame=33341 fps=475 q=-0.0 size=N/A time=00:23:10.59 bitrate=N/A speed=19.8x    frame=33580 fps=475 q=-0.0 size=N/A time=00:23:20.56 bitrate=N/A speed=19.8x    frame=33792 fps=475 q=-0.0 size=N/A time=00:23:29.40 bitrate=N/A speed=19.8x    frame=34002 fps=474 q=-0.0 size=N/A time=00:23:38.16 bitrate=N/A speed=19.8x    frame=34196 fps=474 q=-0.0 size=N/A time=00:23:46.25 bitrate=N/A speed=19.8x    frame=34400 fps=473 q=-0.0 size=N/A time=00:23:54.76 bitrate=N/A speed=19.7x    frame=34616 fps=473 q=-0.0 size=N/A time=00:24:03.77 bitrate=N/A speed=19.7x    [Parsed_psnr_10 @ 0000020277f0b340] PSNR y:46.906776 u:50.039690 v:49.638714 average:47.681963 min:39.916107 max:inf
[out#0/null @ 00000202775d4780] video:14924KiB audio:271644KiB subtitle:0KiB other streams:0KiB global headers:0KiB muxing overhead: unknown
frame=34732 fps=473 q=-0.0 Lsize=N/A time=00:24:08.61 bitrate=N/A speed=19.7x    
